<svg xmlns="http://www.w3.org/2000/svg" xmlns:xlink="http://www.w3.org/1999/xlink">
    <symbol viewBox="0 0 71 24" fill="none" id="buzz-ico">
        <path d="M14.6815 11.8451C15.8617 11.9399 16.8531 12.4142 17.7028 13.3152C18.5525 14.2162 18.9774 15.4492 18.9774 17.0142C18.9774 18.9111 18.3637 20.476 17.0891 21.6142C15.8145 22.7523 14.0206 23.3214 11.613 23.3214H0V0.843018H11.5658C13.5957 0.843018 15.248 1.41209 16.4754 2.50281C17.7028 3.64096 18.3165 5.11106 18.3165 6.96054C18.3165 8.38322 17.9388 9.47395 17.1363 10.3276C16.3338 11.1812 15.5312 11.608 14.6343 11.7028L14.6815 11.8451ZM5.52327 10.1379H10.3384C11.141 10.1379 11.8019 9.90075 12.3211 9.42652C12.7932 8.9523 13.0765 8.38322 13.0765 7.57704C13.0765 6.8657 12.8404 6.34405 12.3684 5.91724C11.8963 5.49044 11.2826 5.30075 10.5745 5.30075H5.52327V10.1379ZM10.6217 18.8636C11.4714 18.8636 12.1795 18.6265 12.6516 18.1997C13.1237 17.7729 13.3597 17.1564 13.3597 16.3502C13.3597 15.5915 13.1237 15.0224 12.6044 14.5956C12.1323 14.1688 11.4714 13.9317 10.7161 13.9317H5.52327V18.8636H10.6217ZM38.0964 23.3214H32.762V21.709C31.4402 23.1317 29.6935 23.843 27.6164 23.843C25.6336 23.843 24.0758 23.1791 22.8956 21.8987C21.7154 20.6183 21.1017 18.9111 21.1017 16.8245V6.48632H26.389V15.6863C26.389 16.6822 26.6722 17.4884 27.1915 18.1049C27.7108 18.7214 28.4189 19.0059 29.2686 19.0059C30.3544 19.0059 31.2041 18.6265 31.8178 17.8678C32.4315 17.109 32.7148 15.9234 32.7148 14.3111V6.48632H38.0492L38.0964 23.3214ZM54.5718 23.3214H40.4096V22.3255L47.0658 10.7544H40.5984V6.48632H54.4774V7.48219L47.8211 19.0533H54.5246V23.3214H54.5718ZM71 23.3214H56.885V22.3255L63.494 10.7544H57.0266V6.48632H70.9056V7.48219L64.2493 19.0533H70.9528L71 23.3214Z"
              fill="#718087"/>
    </symbol>
    <symbol viewBox="0 0 98 19" fill="none" id="chase-ico">
        <path d="M32.919 0.29194V7.47772H22.9079V0.29194L19.2617 0.288696V18.4071H22.9079V10.6234H32.919V18.4071H36.5711V0.29194H32.919Z"
              fill="#718087"/>
        <path d="M81.4258 0.292603V18.4034H97.4224L95.3964 15.2151H85.0823V10.624H95.0695V7.55306H85.0823V3.40632H95.3791L97.364 0.292603H81.4258Z"
              fill="#718087"/>
        <path d="M5.70849 0.28772C1.91565 0.28772 0 2.59351 0 5.94858V12.7117C0 16.5944 2.46868 18.4072 5.68954 18.4072L17.1292 18.4061L15.0085 15.0944H6.39627C4.56667 15.0944 3.76958 14.4331 3.76958 12.3854V6.24946C3.76958 4.26997 4.4406 3.49776 6.44497 3.49776H15.0983L17.1346 0.28772H5.70849Z"
              fill="#718087"/>
        <path d="M65.4234 0.283257C63.2329 0.283257 60.9877 1.59985 60.9877 4.9863V5.85645C60.9877 9.38684 63.1479 10.7337 65.3092 10.7429H72.8955C73.6834 10.7429 74.3235 10.8739 74.3235 12.2056L74.3224 13.7441C74.3024 14.9406 73.7055 15.2144 72.8684 15.2144H62.8882L60.8438 18.4028H73.1033C76.0595 18.4028 78.0666 16.9319 78.0666 13.5347V12.2863C78.0666 9.00156 76.2018 7.44956 73.3105 7.44956H66.0668C65.2638 7.44956 64.7042 7.2304 64.7042 6.04098V4.78824C64.7042 3.77523 65.0879 3.40563 66.0235 3.40563L75.5281 3.40184L77.5146 0.278931L65.4234 0.283257Z"
              fill="#718087"/>
        <path d="M47.1648 0.292603L38.5742 18.4067H42.6344L44.3076 14.6658H53.6428L55.3106 18.4067H59.3886L50.778 0.292603H47.1648ZM48.9663 4.05352L52.2672 11.5824H45.6864L48.9663 4.05352Z"
              fill="#718087"/>
    </symbol>
    <symbol viewBox="0 0 95 21" fill="none" id="microsoft-ico">
        <path d="M94.6005 9.38607V7.72967H92.5438V5.15459L92.4747 5.17598L90.505 5.77864V7.72967H87.4556V6.64205C87.4263 6.23028 87.5456 5.82164 87.7917 5.49024C87.9103 5.3601 88.0564 5.25802 88.2194 5.1914C88.3824 5.12478 88.5582 5.09531 88.734 5.10511C89.0429 5.10923 89.3475 5.17849 89.6277 5.30837L89.7035 5.34225V3.59937L89.6679 3.58645C89.2981 3.47255 88.912 3.42103 88.5254 3.434C87.9611 3.4251 87.4038 3.55896 86.9051 3.82314C86.4367 4.07519 86.0507 4.4568 85.7934 4.92235C85.526 5.41723 85.3904 5.97262 85.3998 6.53507V7.72967H83.9676V9.38607H85.3998V16.3634H87.4556V9.38607H90.505V13.8186C90.505 15.6462 91.3662 16.5702 93.0654 16.5702C93.3589 16.5685 93.6514 16.5361 93.9381 16.4735C94.1583 16.4361 94.3722 16.3683 94.5738 16.272L94.601 16.2559V14.5844L94.5172 14.6397C94.3896 14.7204 94.2502 14.7806 94.1039 14.818C93.9722 14.8587 93.8357 14.8819 93.6979 14.8871C93.5376 14.9011 93.3762 14.8798 93.225 14.8247C93.0739 14.7697 92.9366 14.6821 92.8229 14.5683C92.6064 14.2422 92.508 13.8518 92.5438 13.462V9.38607H94.6005ZM79.3755 14.8884C79.0474 14.9055 78.7197 14.8483 78.4169 14.721C78.114 14.5937 77.8438 14.3997 77.6264 14.1533C77.1755 13.5589 76.9526 12.8226 76.9979 12.0779C76.9501 11.3159 77.1727 10.5614 77.6264 9.94727C77.8392 9.69913 78.1059 9.50287 78.4061 9.37347C78.7063 9.24408 79.0321 9.18496 79.3586 9.20064C79.6752 9.18543 79.9912 9.24164 80.2832 9.36509C80.5752 9.48855 80.8356 9.67609 81.0453 9.91384C81.4957 10.5225 81.7141 11.2718 81.6613 12.0271C81.7133 12.7851 81.5093 13.5386 81.0819 14.1667C80.8734 14.4116 80.6105 14.6043 80.3142 14.7295C80.0179 14.8546 79.6965 14.9096 79.3755 14.8884ZM79.4669 7.51839C78.8518 7.48456 78.2362 7.57714 77.6582 7.79042C77.0803 8.00371 76.5521 8.33316 76.1064 8.75846C75.6895 9.21375 75.3674 9.74752 75.1589 10.3286C74.9504 10.9097 74.8598 11.5265 74.8922 12.143C74.8627 12.7336 74.9524 13.3241 75.156 13.8792C75.3597 14.4344 75.673 14.9428 76.0774 15.3743C76.4988 15.7789 76.9982 16.0934 77.5452 16.2987C78.0921 16.5039 78.6752 16.5955 79.2587 16.568C79.8649 16.5978 80.4707 16.5014 81.0377 16.2851C81.6047 16.0687 82.1206 15.737 82.5528 15.311C82.9663 14.8601 83.2865 14.3319 83.4949 13.7568C83.7033 13.1816 83.7958 12.5709 83.767 11.9598C83.8318 10.7674 83.4224 9.59766 82.6282 8.70586C82.2122 8.29994 81.7163 7.98489 81.1721 7.7807C80.628 7.57651 80.0473 7.48764 79.4669 7.51973V7.51839ZM71.5772 7.51973C70.7223 7.48356 69.881 7.7435 69.1955 8.25566C68.9008 8.47943 68.6631 8.7697 68.5018 9.10279C68.3405 9.43588 68.2602 9.80236 68.2675 10.1724C68.2603 10.5389 68.3285 10.903 68.4676 11.2422C68.6058 11.5546 68.8163 11.8296 69.0819 12.0445C69.4647 12.3323 69.8845 12.5674 70.33 12.7434C70.6861 12.8833 71.0332 13.045 71.3695 13.2275C71.5464 13.3198 71.7022 13.4478 71.8272 13.6033C71.9188 13.7499 71.9631 13.921 71.9543 14.0936C71.9543 14.6731 71.5201 14.9557 70.6259 14.9557C70.2429 14.9466 69.8637 14.8772 69.5022 14.7502C69.0909 14.6158 68.7028 14.419 68.3513 14.1667L68.2657 14.1057V16.0852L68.2969 16.0999C68.6465 16.2526 69.012 16.3655 69.3868 16.4365C69.7693 16.5199 70.1592 16.5647 70.5506 16.5702C71.4486 16.6171 72.3358 16.3559 73.0651 15.8298C73.3647 15.5999 73.6057 15.3023 73.7684 14.9615C73.9311 14.6206 74.0109 14.2461 74.0012 13.8685C74.0159 13.3297 73.8372 12.8035 73.4975 12.3851C73.0217 11.891 72.4351 11.5174 71.7862 11.2952C71.3493 11.1489 70.9379 10.935 70.5671 10.6614C70.4826 10.5734 70.4171 10.4689 70.3747 10.3545C70.3324 10.2401 70.3141 10.1181 70.321 9.9963C70.3193 9.87615 70.3467 9.75737 70.4011 9.65021C70.4555 9.54305 70.5351 9.45071 70.6331 9.38117C70.8892 9.20397 71.1971 9.11708 71.5081 9.13423C71.8613 9.13591 72.2123 9.18983 72.5498 9.29425C72.8725 9.38833 73.1792 9.53048 73.4596 9.71593L73.5434 9.77343V7.89817L73.5113 7.88435C73.2135 7.76571 72.9039 7.67934 72.5877 7.62671C72.254 7.56132 71.915 7.52626 71.5749 7.52196L71.5772 7.51973ZM62.9083 14.8884C62.5802 14.9055 62.2525 14.8483 61.9496 14.721C61.6467 14.5937 61.3765 14.3997 61.1591 14.1533C60.7089 13.5595 60.4861 12.8241 60.5311 12.0802C60.4832 11.3181 60.7058 10.5636 61.1596 9.9495C61.3723 9.70127 61.639 9.50496 61.9392 9.37556C62.2394 9.24616 62.5652 9.18709 62.8918 9.20287C63.2084 9.18766 63.5244 9.24387 63.8164 9.36732C64.1083 9.49078 64.3688 9.67832 64.5785 9.91607C65.0289 10.5247 65.2473 11.2741 65.1945 12.0294C65.2465 12.7873 65.0424 13.5408 64.615 14.169C64.4066 14.4139 64.1437 14.6066 63.8474 14.7318C63.5511 14.8569 63.2296 14.911 62.9087 14.8897L62.9083 14.8884ZM63.0005 7.52062C62.3854 7.48674 61.7698 7.57929 61.1918 7.79258C60.6138 8.00586 60.0857 8.33535 59.64 8.76069C59.223 9.21594 58.9008 9.74969 58.6923 10.3308C58.4837 10.9119 58.393 11.5287 58.4254 12.1453C58.3958 12.7359 58.4856 13.3264 58.6893 13.8816C58.893 14.4367 59.2065 14.9451 59.6111 15.3765C60.0324 15.7811 60.5318 16.0957 61.0788 16.3009C61.6258 16.5062 62.2088 16.5978 62.7924 16.5702C63.3985 16.6 64.0043 16.5036 64.5713 16.2872C65.1383 16.0709 65.6542 15.7392 66.0864 15.3132C66.4999 14.8624 66.8201 14.3341 67.0285 13.759C67.2369 13.1838 67.3294 12.5731 67.3007 11.9621C67.3654 10.7695 66.9558 9.59976 66.1613 8.70809C65.7454 8.30222 65.2496 7.9872 64.7055 7.78302C64.1614 7.57883 63.5808 7.48993 63.0005 7.52196V7.52062ZM55.3047 9.22516V7.72967H53.2739V16.3634H55.3047V11.9465C55.2756 11.297 55.4529 10.6551 55.8111 10.1126C55.9547 9.89633 56.1503 9.7195 56.3799 9.59833C56.6096 9.47716 56.8659 9.41553 57.1256 9.41906C57.3321 9.4222 57.5374 9.45217 57.7362 9.50821C57.9036 9.5454 58.0636 9.61017 58.2096 9.69988L58.2952 9.76184V7.71496L58.2622 7.7007C58.0074 7.60964 57.7374 7.56862 57.467 7.5799C56.9707 7.57502 56.489 7.74765 56.1088 8.06666C55.7529 8.37925 55.4837 8.77845 55.3274 9.2256L55.3047 9.22516ZM49.637 7.52151C48.7765 7.50418 47.9261 7.70865 47.1676 8.11525C46.47 8.49909 45.9029 9.08235 45.5388 9.79037C45.155 10.5602 44.9631 11.4114 44.9794 12.2714C44.9693 13.0469 45.1564 13.8123 45.5232 14.4957C45.8713 15.1434 46.3989 15.6769 47.0427 16.0322C47.7245 16.3991 48.4889 16.585 49.263 16.572C50.1164 16.5994 50.962 16.4015 51.7146 15.9983L51.7414 15.9831V14.1221L51.6558 14.1846C51.3519 14.405 51.0171 14.5794 50.6622 14.7021C50.3505 14.8184 50.0217 14.8821 49.6892 14.8906C49.338 14.9077 48.9872 14.8506 48.6596 14.7229C48.332 14.5953 48.035 14.4 47.788 14.1498C47.2958 13.5829 47.0443 12.8462 47.0869 12.0967C47.0495 11.3262 47.3115 10.571 47.8179 9.98917C48.0608 9.72962 48.3564 9.52514 48.685 9.3895C49.0135 9.25387 49.3674 9.19023 49.7226 9.20287C50.4225 9.21386 51.1002 9.44968 51.6558 9.87551L51.7409 9.93746V7.97617L51.7133 7.96057C51.4176 7.80861 51.1009 7.70149 50.7737 7.64275C50.4003 7.5637 50.0199 7.52292 49.6383 7.52106L49.637 7.52151ZM43.5815 7.72923H41.5507V16.3634H43.5815V7.72923ZM42.587 4.05136C42.2653 4.04625 41.9544 4.16812 41.7218 4.39057C41.6048 4.49795 41.512 4.629 41.4495 4.77502C41.387 4.92105 41.3563 5.0787 41.3595 5.2375C41.3559 5.39338 41.3859 5.54821 41.4475 5.69149C41.509 5.83476 41.6006 5.96314 41.716 6.06792C41.9517 6.28704 42.2635 6.40569 42.5853 6.39867C42.9079 6.4051 43.2205 6.28678 43.458 6.06837C43.575 5.96434 43.6681 5.8362 43.7308 5.69276C43.7935 5.54933 43.8244 5.39401 43.8213 5.2375C43.823 5.08111 43.7924 4.92606 43.7316 4.78198C43.6708 4.6379 43.581 4.50785 43.4678 4.39993C43.3517 4.28538 43.2136 4.19546 43.0619 4.13556C42.9102 4.07566 42.7479 4.04702 42.5848 4.05136H42.587ZM37.5176 7.09225V16.3638H39.5903V4.31613H36.7219L33.0757 13.2645L29.5373 4.31613H26.5508V16.3629H28.4987V7.09136H28.5656L32.3018 16.3629H33.7728L37.4511 7.09136L37.5176 7.09225Z"
              fill="#718087"/>
        <path d="M9.97611 9.84376H0.422394V0.290039H9.97611V9.84376Z" fill="#718087"/>
        <path d="M20.5247 9.84376H10.971V0.290039H20.5247V9.84376Z" fill="#718087"/>
        <path d="M9.97611 20.3959H0.422394V10.8422H9.97611V20.3959Z" fill="#718087"/>
        <path d="M20.5247 20.3959H10.971V10.8422H20.5247V20.3959Z" fill="#718087"/>
    </symbol>
    <symbol viewBox="0 0 97 24" fill="none" id="gucc-ico">
        <path opacity="0.8"
              d="M21.9845 16.2062V21.1646C20.182 22.7497 15.8749 23.6926 12.6682 23.6926C9.46558 23.6926 0.600952 21.7092 0.600952 12.3898C0.600952 3.07027 9.03857 1.06249 12.4424 1.06249C15.8503 1.06249 19.4799 1.68027 21.5821 3.07027V7.43128C21.5821 7.9759 20.8307 7.92713 20.8307 7.43128C20.7814 6.68751 18.7778 2.22895 13.7686 2.3265C8.3611 2.43623 4.70685 6.64281 4.70685 12.1906C4.70685 17.7384 8.25845 22.5018 13.6208 22.3514C15.3617 22.3026 17.1765 21.758 18.0551 21.0346L18.0757 16.2062C18.0757 14.8202 17.2257 14.3244 16.3758 14.3244C15.8215 14.3244 15.8215 13.5318 16.3758 13.5318H23.6843C24.2345 13.5318 24.2345 14.3731 23.6843 14.3244C22.8385 14.3244 21.9845 14.8202 21.9845 16.2062ZM71.2593 7.43535C71.2593 7.97997 70.7092 7.9312 70.7092 7.43535C70.6558 6.69158 68.6562 2.08264 63.647 2.18424C58.2395 2.28992 54.5812 6.64687 54.5812 12.1947C54.5812 17.7425 58.0876 22.6522 63.4458 22.5059C68.804 22.3555 71.3579 17.1044 71.5591 16.4094C71.7603 15.7144 72.1093 15.816 72.1093 16.3606V20.4249C69.9085 22.01 65.7492 23.6967 62.5466 23.6967C59.344 23.6967 50.4794 21.7133 50.4794 12.3938C50.4794 3.07027 58.8924 0.843018 62.2962 0.843018C65.7041 0.843018 69.1571 1.68433 71.2635 3.07027V7.43535H71.2593ZM48.5743 1.38764C49.3749 1.38764 49.3749 2.13141 48.5743 2.13141C47.7243 2.13141 46.8744 2.62726 46.8744 4.01319L46.7759 14.8446C46.7759 20.0307 42.5263 23.843 37.283 23.843C32.0398 23.843 27.9462 20.0307 27.9462 14.8446V4.01319C27.9462 2.62319 27.0922 2.13141 26.2423 2.13141C25.4416 2.13141 25.4416 1.38764 26.2423 1.38764H33.6534C34.4541 1.38764 34.4541 2.13141 33.6534 2.13141C32.7994 2.13141 31.9495 2.62726 31.9495 4.01319L31.9413 16.1086C31.9413 19.7665 34.9632 22.7335 38.6585 22.7335C42.3538 22.7335 45.3511 19.0227 45.3511 15.3689L45.1705 4.01319C45.1705 2.62319 44.3205 2.13141 43.4665 2.13141C42.67 2.13141 42.67 1.38764 43.4665 1.38764H48.5743ZM95.7469 7.43535C95.7469 7.97997 95.1967 7.9312 95.1967 7.43535C95.1475 6.69158 93.1438 2.08264 88.1346 2.18424C82.7271 2.28992 79.0688 6.64687 79.0688 12.1947C79.0688 17.7425 82.5752 22.6522 87.9334 22.5059C93.2916 22.3595 95.8455 17.1044 96.0467 16.4094C96.2478 15.7144 96.601 15.816 96.601 16.3606V20.4249C94.3961 22.01 90.2409 23.6967 87.0342 23.6967C83.8316 23.6967 74.967 21.7133 74.967 12.3938C74.967 3.07027 83.38 0.843018 86.7878 0.843018C90.1916 0.843018 93.6488 1.68433 95.751 3.07027V7.43535H95.7469Z"
              fill="#718087"/>
    </symbol>
    <symbol id="airbnb-ico" viewBox="0 0 86 27" fill="none">
        <path d="M45.3987 6.70527C45.3987 7.66702 44.6283 8.44143 43.6723 8.44143C42.7162 8.44143 41.9464 7.66702 41.9464 6.70527C41.9464 5.74353 42.69 4.96911 43.6723 4.96911C44.6554 4.99579 45.3987 5.77048 45.3987 6.70527ZM38.2819 10.2048V10.6323C38.2819 10.6323 37.4591 9.56329 35.7064 9.56329C32.8123 9.56329 30.5548 11.7806 30.5548 14.8524C30.5548 17.8977 32.7858 20.1414 35.7064 20.1414C37.4856 20.1414 38.2819 19.0463 38.2819 19.0463V19.5002C38.2819 19.7139 38.4416 19.8738 38.6538 19.8738H40.8044V9.82961H38.6538C38.4416 9.83041 38.2819 10.0177 38.2819 10.2048ZM38.2819 16.6422C37.884 17.23 37.0871 17.7376 36.1314 17.7376C34.432 17.7376 33.1306 16.6691 33.1306 14.8524C33.1306 13.0359 34.432 11.9674 36.1314 11.9674C37.0609 11.9674 37.9105 12.5016 38.2819 13.0626V16.6422ZM42.3979 9.83041H44.9469V19.8746H42.3979V9.83041ZM80.4764 9.56303C78.7238 9.56303 77.9004 10.632 77.9004 10.632V4.9958H75.3514V19.8746H77.5024C77.7149 19.8746 77.8738 19.6875 77.8738 19.5004V19.0465C77.8738 19.0465 78.6972 20.1417 80.4494 20.1417C83.344 20.1417 85.6009 17.8985 85.6009 14.8532C85.6009 11.8078 83.344 9.56303 80.4764 9.56303ZM80.0515 17.7106C79.0686 17.7106 78.2988 17.2036 77.9004 16.6155V13.0359C78.2988 12.5016 79.1485 11.9407 80.0515 11.9407C81.7508 11.9407 83.0519 13.0092 83.0519 14.8257C83.0519 16.6422 81.7511 17.7106 80.0515 17.7106ZM74.0239 13.9178V19.9013H71.4744V14.2114C71.4744 12.5555 70.9433 11.8873 69.5103 11.8873C68.7405 11.8873 67.9436 12.2881 67.4383 12.876V19.8748H64.8898V9.83068H66.9072C67.1197 9.83068 67.2791 10.0177 67.2791 10.2048V10.6323C68.0227 9.85736 69.005 9.56329 69.9873 9.56329C71.1028 9.56329 72.0323 9.88432 72.7758 10.5253C73.6783 11.2733 74.0239 12.2348 74.0239 13.9178ZM58.7018 9.56303C56.9497 9.56303 56.1263 10.632 56.1263 10.632V4.9958H53.5773V19.8746H55.7278C55.9403 19.8746 56.0997 19.6875 56.0997 19.5004V19.0465C56.0997 19.0465 56.9231 20.1417 58.6753 20.1417C61.5699 20.1417 63.8269 17.8985 63.8269 14.8532C63.8534 11.8075 61.5965 9.56303 58.7018 9.56303ZM58.2768 17.7106C57.2945 17.7106 56.5247 17.2036 56.1263 16.6155V13.0359C56.5247 12.5016 57.3744 11.9407 58.2768 11.9407C59.9767 11.9407 61.2776 13.0092 61.2776 14.8257C61.2776 16.6422 59.9767 17.7106 58.2768 17.7106ZM51.3731 9.56303C52.1429 9.56303 52.5414 9.69698 52.5414 9.69698V12.0741C52.5414 12.0741 50.4171 11.3528 49.0897 12.8758V19.901H46.5401V9.83041H48.6912C48.9037 9.83041 49.0626 10.0175 49.0626 10.2045V10.632C49.5411 10.0708 50.5768 9.56303 51.3731 9.56303ZM24.8992 18.9662C24.7666 18.6457 24.6337 18.2985 24.501 18.0045C24.2883 17.5238 24.0758 17.0694 23.8904 16.6422L23.8638 16.6155C22.0313 12.6084 20.0667 8.54844 17.9952 4.54188L17.9156 4.38123C17.6978 3.96559 17.4854 3.54704 17.2787 3.12568C17.0129 2.64454 16.7476 2.13751 16.3227 1.65637C15.473 0.587882 14.2514 0 12.9505 0C11.6226 0 10.4278 0.587885 9.55187 1.60273C9.15343 2.08334 8.8611 2.5909 8.59583 3.07204C8.38859 3.49314 8.17626 3.91169 7.95891 4.32759L7.87906 4.48824C5.83434 8.4948 3.84294 12.555 2.0107 16.5618L1.98392 16.6149C1.79823 17.043 1.58547 17.4969 1.37299 17.9772C1.24036 18.2713 1.10772 18.5918 0.975083 18.939C0.629698 19.9271 0.523319 20.8622 0.656486 21.8242C0.94855 23.8278 2.27597 25.51 4.10848 26.2585C4.79898 26.5526 5.51601 26.686 6.2593 26.686C6.47179 26.686 6.73707 26.6594 6.94982 26.6324C7.82628 26.5257 8.72899 26.2321 9.60545 25.7246C10.6941 25.11 11.7298 24.2288 12.898 22.9466C14.0663 24.2288 15.1284 25.11 16.1906 25.7246C17.0673 26.2321 17.9698 26.5257 18.8459 26.6324C19.0584 26.6596 19.3242 26.686 19.5367 26.686C20.2803 26.686 21.0236 26.5526 21.6873 26.2585C23.5463 25.51 24.8472 23.8011 25.1395 21.8242C25.3504 20.8894 25.2443 19.9549 24.8992 18.9662ZM12.9237 20.3552C11.4897 18.5387 10.5602 16.8292 10.2418 15.3871C10.1092 14.7726 10.0824 14.2383 10.1623 13.7575C10.215 13.3299 10.3747 12.9558 10.5872 12.6353C11.0918 11.9145 11.9414 11.4601 12.924 11.4601C13.9068 11.4601 14.783 11.8876 15.2611 12.6353C15.4735 12.9558 15.6327 13.3302 15.6863 13.7575C15.7656 14.2386 15.7391 14.7993 15.6064 15.3871C15.2868 16.8025 14.3573 18.5123 12.9237 20.3552ZM23.5182 21.6107C23.3325 22.9997 22.403 24.2022 21.1021 24.7364C20.4649 25.0033 19.7741 25.0836 19.0842 25.0033C18.4205 24.9229 17.7562 24.7092 17.0662 24.3089C16.1102 23.7741 15.1544 22.9466 14.039 21.7175C15.7913 19.5541 16.8535 17.577 17.2519 15.8144C17.4379 14.9861 17.4647 14.2383 17.3846 13.5434C17.2787 12.8758 17.0394 12.2612 16.6678 11.7269C15.8441 10.5245 14.4631 9.83041 12.9235 9.83041C11.3838 9.83041 10.0028 10.5517 9.17969 11.7269C8.80804 12.2612 8.56877 12.8758 8.46266 13.5434C8.35655 14.2383 8.38281 15.0127 8.59529 15.8144C8.99347 17.577 10.0822 19.5805 11.808 21.7442C10.7193 22.973 9.73676 23.8013 8.78072 24.3356C8.09022 24.7364 7.42677 24.9502 6.76306 25.0299C6.0463 25.1103 5.35553 25.0033 4.74487 24.7631C3.44397 24.2288 2.51446 23.0264 2.32877 21.6374C2.24919 20.9697 2.30197 20.3021 2.56778 19.5541C2.64709 19.2867 2.78026 19.0198 2.9129 18.6993C3.09885 18.2718 3.3108 17.8174 3.52355 17.3635L3.55035 17.3104C5.38232 13.3299 7.34719 9.26975 9.39191 5.31656L9.47149 5.15591C9.68424 4.75563 9.89673 4.32813 10.1089 3.92731C10.3214 3.49981 10.5602 3.09899 10.8525 2.75154C11.4101 2.11109 12.1534 1.76338 12.9768 1.76338C13.8002 1.76338 14.5435 2.11109 15.1011 2.75154C15.3934 3.09979 15.6322 3.50061 15.8447 3.92731C16.0574 4.32813 16.2699 4.75563 16.4818 5.15591L16.5617 5.31656C18.5752 9.28617 20.514 13.2937 22.377 17.337V17.3637C22.5897 17.7918 22.7754 18.2721 22.9879 18.7001C23.1206 19.0201 23.2535 19.287 23.333 19.5543C23.545 20.2482 23.6246 20.9164 23.5182 21.6107Z"
              fill="#718087"/>
    </symbol>
    <symbol id="uber-ico" viewBox="0 0 76 17" fill="none">
        <path d="M12.776 0.343018H15.6604V9.69536C15.6604 14.6159 12.5848 16.343 8.12271 16.343C3.67659 16.343 0.600952 14.6159 0.600952 9.69536V0.717763C0.600952 0.457071 0.72844 0.343018 0.983415 0.343018H3.86782V9.54872C3.86782 12.4978 5.14269 13.7198 8.12271 13.7198C11.1187 13.7198 12.3935 12.4978 12.3935 9.54872V0.717763C12.3935 0.457071 12.521 0.343018 12.776 0.343018ZM45.4287 2.90106V6.84404H52.7274C52.8549 6.84404 52.9027 6.90921 52.8549 7.03956L52.0581 9.05992C51.9784 9.23915 51.8668 9.32061 51.6278 9.32061H47.341C45.9387 9.32061 45.4287 9.76053 45.4287 10.7218V13.508H55.309C55.4365 13.508 55.4843 13.5732 55.4365 13.7035L54.6078 15.8053C54.5281 15.9846 54.4166 16.066 54.1776 16.066H43.3571C42.5284 16.066 42.2097 15.7728 42.2097 15.1373V1.43467C42.2097 0.668883 42.624 0.343018 43.7077 0.343018H55.309C55.4365 0.343018 55.4843 0.408191 55.4365 0.522244L54.6078 2.64037C54.5281 2.8196 54.4166 2.90106 54.1776 2.90106H45.4287ZM36.2656 11.7157C36.2656 14.8603 34.0983 16.066 31.0545 16.066H22.9909C22.1463 16.066 21.8436 15.7728 21.8436 15.1373V1.43467C21.8436 0.668883 22.2419 0.343018 23.3415 0.343018H29.8912C32.7597 0.343018 35.5325 0.848109 35.5325 4.33487C35.5325 5.83385 35.0066 7.10473 33.7477 7.77275C35.4847 8.24526 36.2656 9.842 36.2656 11.7157ZM25.0148 6.89292H30.1302C31.8194 6.89292 32.2975 6.22489 32.2975 4.85626C32.2975 3.48762 31.8194 2.83589 30.1302 2.83589H25.0148V6.89292ZM33.0306 11.4224C33.0306 9.97235 32.5366 9.25544 30.7199 9.25544H26.9431C25.5407 9.25544 25.0148 9.69536 25.0148 10.6567V13.5732H30.7199C32.5366 13.5732 33.0306 12.8563 33.0306 11.4224ZM75.4202 16.066H72.4879C72.2489 16.066 72.1533 15.9683 72.0577 15.8053L68.9502 10.0701H66.0976C64.6953 10.0701 64.1694 10.51 64.1694 11.4713V16.066H61.3647C61.1097 16.066 60.9822 15.9357 60.9822 15.6913V1.43467C60.9822 0.668883 61.3965 0.343018 62.4802 0.343018H69.0617C72.9023 0.343018 75.213 1.36949 75.213 5.18212C75.213 8.13121 73.8266 9.28803 72.1055 9.74424L75.5636 15.789C75.6273 15.8868 75.6273 16.066 75.4202 16.066ZM71.978 5.24729C71.978 3.65055 71.5477 2.86848 69.5398 2.86848H64.1694V7.62611H69.5398C71.5477 7.62611 71.978 6.86033 71.978 5.24729Z"
              fill="#718087"/>
    </symbol>
    <symbol viewBox="0 0 65 21" fill="none" id="arrows-slider">
        <path d="M52.5 1L63.5 11L52.5 20.5" stroke="white"/>
        <path opacity="0.4" d="M12 1L1 11L12 20.5" stroke="white"/>
    </symbol>
    <symbol viewBox="0 0 22 21" fill="none" id="house-ico">
        <path d="M20.9041 6.22719L18.6685 4.87536V0.283746C18.6685 0.13855 18.5509 0.0211906 18.4059 0.0211906H15.0916C14.9468 0.0211906 14.8293 0.13855 14.8293 0.283746V2.55422L10.6674 0.0380134C10.641 0.022192 10.6119 0.0119782 10.5821 0.00717169C10.5152 -0.00844948 10.4451 0.00256544 10.3862 0.0380134L0.157394 6.22719C0.0788878 6.27446 0.0308228 6.35997 0.0308228 6.4517V8.61723C0.0308228 8.71135 0.0810908 8.79827 0.162601 8.84494C0.244312 8.8918 0.344648 8.8914 0.425757 8.84393L1.96624 7.94331V18.522H1.23325C1.08825 18.522 0.970895 18.6394 0.970895 18.7846V20.7376C0.970895 20.8826 1.08825 21.0002 1.23325 21.0002H19.8282C19.9732 21.0002 20.0908 20.8826 20.0908 20.7376V18.7846C20.0908 18.6394 19.9732 18.522 19.8282 18.522H19.0952V7.94392L20.6359 8.84393C20.6768 8.86777 20.7224 8.87978 20.7683 8.87978C20.8134 8.87978 20.8584 8.86817 20.8989 8.84494C20.9806 8.79827 21.0307 8.71135 21.0307 8.61723V6.4517C21.0307 6.35997 20.9826 6.27446 20.9041 6.22719V6.22719ZM15.3542 0.546101H18.1433V4.55793L15.3542 2.87165V0.546101ZM19.5657 20.4751H1.49581V19.0469H19.5657V20.4751ZM12.8932 18.522H8.16824V10.3233H12.8932V18.522ZM18.5703 18.522H13.4183V10.0608C13.4183 9.91558 13.3008 9.79823 13.1558 9.79823H7.90568C7.76089 9.79823 7.64333 9.91558 7.64333 10.0608V18.522H2.49115V7.6363L10.5268 2.93794L18.5703 7.6371V18.522ZM20.5057 8.16001L10.6592 2.40722C10.6184 2.38339 10.5725 2.37137 10.5268 2.37137C10.481 2.37137 10.4353 2.38339 10.3943 2.40722L0.555733 8.15961V6.5995L10.5268 0.566729L20.5057 6.5995V8.16001Z"
              fill="#31353B"/>
    </symbol>
    <symbol viewBox="0 0 35 35" fill="none" id="search-ico">
        <g filter="url(#filter0_dd_2_116)">
            <path d="M29.2929 26.7071C29.6834 27.0976 30.3166 27.0976 30.7071 26.7071C31.0976 26.3166 31.0976 25.6834 30.7071 25.2929L29.2929 26.7071ZM30.7071 25.2929L23.3795 17.9653L21.9653 19.3795L29.2929 26.7071L30.7071 25.2929ZM24.6897 11.3448C24.6897 16.5058 20.5058 20.6897 15.3448 20.6897V22.6897C21.6104 22.6897 26.6897 17.6104 26.6897 11.3448H24.6897ZM15.3448 20.6897C10.1838 20.6897 6 16.5058 6 11.3448H4C4 17.6104 9.07925 22.6897 15.3448 22.6897V20.6897ZM6 11.3448C6 6.18382 10.1838 2 15.3448 2V0C9.07925 0 4 5.07925 4 11.3448H6ZM15.3448 2C20.5058 2 24.6897 6.18382 24.6897 11.3448H26.6897C26.6897 5.07925 21.6104 0 15.3448 0V2Z"
                  fill="white"/>
        </g>
        <defs>
            <filter id="filter0_dd_2_116" x="0" y="0" width="35" height="35" filterUnits="userSpaceOnUse"
                    color-interpolation-filters="sRGB">
                <feFlood flood-opacity="0" result="BackgroundImageFix"/>
                <feColorMatrix in="SourceAlpha" type="matrix" values="0 0 0 0 0 0 0 0 0 0 0 0 0 0 0 0 0 0 127 0"
                               result="hardAlpha"/>
                <feOffset dy="4"/>
                <feGaussianBlur stdDeviation="2"/>
                <feComposite in2="hardAlpha" operator="out"/>
                <feColorMatrix type="matrix" values="0 0 0 0 0 0 0 0 0 0 0 0 0 0 0 0 0 0 0.25 0"/>
                <feBlend mode="normal" in2="BackgroundImageFix" result="effect1_dropShadow_2_116"/>
                <feColorMatrix in="SourceAlpha" type="matrix" values="0 0 0 0 0 0 0 0 0 0 0 0 0 0 0 0 0 0 127 0"
                               result="hardAlpha"/>
                <feOffset dy="4"/>
                <feGaussianBlur stdDeviation="2"/>
                <feComposite in2="hardAlpha" operator="out"/>
                <feColorMatrix type="matrix" values="0 0 0 0 0 0 0 0 0 0 0 0 0 0 0 0 0 0 0.25 0"/>
                <feBlend mode="normal" in2="effect1_dropShadow_2_116" result="effect2_dropShadow_2_116"/>
                <feBlend mode="normal" in="SourceGraphic" in2="effect2_dropShadow_2_116" result="shape"/>
            </filter>
        </defs>
    </symbol>
    <symbol viewBox="0 0 25 25" fill="none" id="hand-ico">
        <path d="M6.93734 23.4923L5.41884 25L0 19.7577L3.88234 15.9311C4.66858 15.1505 5.66071 14.6059 6.74471 14.3599C7.82871 14.114 8.96061 14.1767 10.0103 14.5408L10.8634 14.8367H16.0972C16.3186 14.8366 16.5377 14.8807 16.7415 14.9663C16.9454 15.0519 17.1299 15.1773 17.284 15.3351C17.4381 15.4928 17.5587 15.6797 17.6386 15.8847C17.7186 16.0896 17.7562 16.3084 17.7493 16.5281C17.7242 16.9623 17.5311 17.37 17.2103 17.6662C16.8895 17.9623 16.4658 18.124 16.0278 18.1173H12.888C12.7177 18.1173 12.5543 18.1845 12.4338 18.3041C12.3134 18.4237 12.2457 18.586 12.2457 18.7551C12.2457 18.9242 12.3134 19.0865 12.4338 19.2061C12.5543 19.3257 12.7177 19.3929 12.888 19.3929H16.0381C16.8065 19.3966 17.5469 19.1068 18.106 18.5835C18.6652 18.0602 19.0002 17.3434 19.0417 16.5816C19.0417 16.5689 19.0417 16.5561 19.0417 16.5408L21.9554 13.2832C22.2514 12.9422 22.6683 12.7275 23.1195 12.6838C23.5707 12.6401 24.0216 12.7707 24.3783 13.0485C24.5549 13.1936 24.7003 13.3724 24.8062 13.5743C24.912 13.7762 24.976 13.997 24.9944 14.2239C25.0129 14.4507 24.9854 14.6789 24.9135 14.895C24.8417 15.1111 24.727 15.3108 24.5762 15.4821L18.7591 22.1148C18.3751 22.5517 17.9012 22.9017 17.3693 23.1411C16.8373 23.3806 16.2599 23.5038 15.6758 23.5026L6.93734 23.4923ZM18.9492 9.07143C18.9492 8.75006 18.8206 8.44185 18.5918 8.2146C18.3629 7.98736 18.0525 7.85969 17.7288 7.85969H15.9302V6.07398C15.9158 5.76256 15.7811 5.46863 15.554 5.25331C15.3269 5.03798 15.025 4.91783 14.711 4.91783C14.397 4.91783 14.0951 5.03798 13.8681 5.25331C13.641 5.46863 13.5063 5.76256 13.4918 6.07398V7.85969H11.6933C11.5285 7.85218 11.3638 7.87792 11.2093 7.93536C11.0548 7.99281 10.9136 8.08075 10.7943 8.1939C10.675 8.30704 10.5801 8.44302 10.5152 8.59363C10.4503 8.74424 10.4168 8.90635 10.4168 9.07015C10.4168 9.23396 10.4503 9.39607 10.5152 9.54668C10.5801 9.69728 10.675 9.83327 10.7943 9.94641C10.9136 10.0596 11.0548 10.1475 11.2093 10.2049C11.3638 10.2624 11.5285 10.2881 11.6933 10.2806H13.4918V12.0663C13.5063 12.3777 13.641 12.6717 13.8681 12.887C14.0951 13.1023 14.397 13.2225 14.711 13.2225C15.025 13.2225 15.3269 13.1023 15.554 12.887C15.7811 12.6717 15.9158 12.3777 15.9302 12.0663V10.2806H17.7288C18.052 10.2806 18.362 10.1533 18.5909 9.92661C18.8197 9.69991 18.9485 9.39236 18.9492 9.07143ZM7.24824 2.35714V3.67347H5.925C5.6865 3.67347 5.45776 3.76754 5.28911 3.93498C5.12047 4.10242 5.02572 4.32953 5.02572 4.56633C5.02572 4.80313 5.12047 5.03023 5.28911 5.19767C5.45776 5.36512 5.6865 5.45918 5.925 5.45918H7.25081V6.77551C7.25081 7.01231 7.34555 7.23941 7.5142 7.40686C7.68285 7.5743 7.91159 7.66837 8.15009 7.66837C8.3886 7.66837 8.61734 7.5743 8.78598 7.40686C8.95463 7.23941 9.04938 7.01231 9.04938 6.77551V5.45408H10.3675C10.606 5.45408 10.8347 5.36001 11.0034 5.19257C11.172 5.02513 11.2668 4.79802 11.2668 4.56122C11.2668 4.32442 11.172 4.09732 11.0034 3.92988C10.8347 3.76244 10.606 3.66837 10.3675 3.66837H9.04167V2.35714C9.04167 2.12034 8.94693 1.89324 8.77828 1.7258C8.60963 1.55835 8.38089 1.46429 8.14239 1.46429C7.90388 1.46429 7.67514 1.55835 7.50649 1.7258C7.33785 1.89324 7.2431 2.12034 7.2431 2.35714H7.24824ZM18.5921 0C18.3876 0 18.1916 0.0806302 18.047 0.224153C17.9025 0.367676 17.8213 0.562334 17.8213 0.765306V1.89796H16.6805C16.476 1.89796 16.28 1.97859 16.1354 2.12211C15.9909 2.26564 15.9096 2.46029 15.9096 2.66327C15.9096 2.86624 15.9909 3.0609 16.1354 3.20442C16.28 3.34794 16.476 3.42857 16.6805 3.42857H17.8213V4.56122C17.8213 4.7642 17.9025 4.95885 18.047 5.10238C18.1916 5.2459 18.3876 5.32653 18.5921 5.32653C18.7965 5.32653 18.9926 5.2459 19.1371 5.10238C19.2817 4.95885 19.3629 4.7642 19.3629 4.56122V3.42857H20.5037C20.6049 3.42857 20.7052 3.40878 20.7987 3.37032C20.8922 3.33186 20.9772 3.27548 21.0488 3.20442C21.1203 3.13335 21.1771 3.04899 21.2158 2.95614C21.2546 2.86328 21.2745 2.76377 21.2745 2.66327C21.2745 2.56276 21.2546 2.46325 21.2158 2.3704C21.1771 2.27754 21.1203 2.19318 21.0488 2.12211C20.9772 2.05105 20.8922 1.99467 20.7987 1.95621C20.7052 1.91775 20.6049 1.89796 20.5037 1.89796H19.3629V0.765306C19.3629 0.562334 19.2817 0.367676 19.1371 0.224153C18.9926 0.0806302 18.7965 0 18.5921 0Z"
              fill="white"/>
    </symbol>
    <symbol id="buildings-ico" viewBox="0 0 21 25" fill="none">
        <path d="M16.4786 25V4.99394H0V25H3.8383V23.8131C3.8383 22.3207 5.00866 21.1043 6.4259 21.1043H10.0524C11.4715 21.1043 12.6499 22.3207 12.6499 23.8131V25H16.4786ZM4.55 17.8478C4.55 17.954 4.53091 18.0644 4.49243 18.1624C4.45396 18.2604 4.40009 18.351 4.32898 18.4263C4.25787 18.5013 4.17199 18.5581 4.07871 18.5987C3.98575 18.6393 3.8814 18.6594 3.78043 18.6594H1.9624C1.86174 18.6594 1.75739 18.6393 1.66412 18.5987C1.57115 18.5581 1.48527 18.5013 1.41416 18.4263C1.34274 18.3513 1.28918 18.2608 1.2507 18.1624C1.21222 18.0644 1.19283 17.9543 1.19283 17.8478V15.9506C1.19283 15.8445 1.21192 15.7344 1.2507 15.636C1.28918 15.538 1.34305 15.4474 1.41416 15.3721C1.48527 15.2971 1.57115 15.2403 1.66412 15.1997C1.75739 15.1591 1.86174 15.1387 1.9624 15.1387H3.78043C3.88109 15.1387 3.98544 15.1588 4.07871 15.1997C4.17168 15.2403 4.25756 15.2971 4.32898 15.3721C4.40009 15.4474 4.45396 15.5377 4.49243 15.636C4.53091 15.7341 4.55 15.8441 4.55 15.9506V17.8478ZM4.55 12.2374C4.55 12.3435 4.53091 12.4536 4.49243 12.5519C4.45396 12.65 4.40009 12.7406 4.32898 12.8155C4.25787 12.8909 4.17199 12.9473 4.07871 12.9879C3.98575 13.0285 3.8814 13.049 3.78043 13.049H1.9624C1.86174 13.049 1.75739 13.0288 1.66412 12.9879C1.57115 12.9473 1.48527 12.8905 1.41416 12.8155C1.34274 12.7406 1.28918 12.65 1.2507 12.5519C1.21222 12.4539 1.19283 12.3435 1.19283 12.2374V10.3301C1.19283 10.2239 1.21192 10.1239 1.2507 10.0256C1.28918 9.92753 1.34305 9.83695 1.41416 9.76164C1.48527 9.68664 1.57115 9.61977 1.66412 9.57886C1.75739 9.53828 1.86174 9.51783 1.9624 9.51783H3.78043C3.88109 9.51783 3.98544 9.53796 4.07871 9.57886C4.17168 9.61944 4.25756 9.68632 4.32898 9.76164C4.40009 9.83663 4.45396 9.9272 4.49243 10.0256C4.53091 10.1236 4.55 10.2236 4.55 10.3301V12.2374ZM6.56073 10.2389C6.56073 10.1327 6.57981 10.0226 6.6186 9.92428C6.65708 9.82624 6.71095 9.73566 6.78206 9.66035C6.85347 9.58535 6.93905 9.52854 7.03232 9.48796C7.12528 9.44738 7.22994 9.42725 7.3306 9.42725H8.95624C9.0569 9.42725 9.16125 9.44738 9.25453 9.48796C9.34749 9.52854 9.43337 9.58535 9.50479 9.66035C9.5759 9.73534 9.62977 9.82591 9.66825 9.92428C9.70672 10.0223 9.72612 10.1324 9.72612 10.2389V11.9432C9.72612 12.0494 9.70703 12.1494 9.66825 12.2474C9.62977 12.3455 9.5759 12.436 9.50479 12.5114C9.43368 12.5863 9.3478 12.6532 9.25453 12.6938C9.16156 12.7344 9.0569 12.7548 8.95624 12.7548H7.3306C7.22994 12.7548 7.12528 12.7347 7.03232 12.6938C6.93935 12.6532 6.85347 12.5863 6.78206 12.5114C6.71095 12.4364 6.65708 12.3458 6.6186 12.2474C6.58012 12.1494 6.56073 12.0494 6.56073 11.9432V10.2389ZM9.77352 17.6043C9.77352 17.7105 9.75444 17.8105 9.71565 17.9088C9.67717 18.0069 9.6233 18.0975 9.55219 18.1725C9.48109 18.2478 9.3952 18.3143 9.30224 18.3552C9.20897 18.3958 9.10461 18.4159 9.00395 18.4159H7.32999C7.22933 18.4159 7.12467 18.3958 7.0317 18.3552C6.93874 18.3147 6.85285 18.2478 6.78144 18.1725C6.71033 18.0975 6.65646 18.0069 6.61798 17.9088C6.5795 17.8108 6.56011 17.7108 6.56011 17.6043V15.8493C6.56011 15.7432 6.5792 15.6331 6.61798 15.5347C6.65646 15.4367 6.71033 15.3461 6.78144 15.2711C6.85285 15.1961 6.93843 15.1393 7.0317 15.0987C7.12467 15.0582 7.22933 15.0377 7.32999 15.0377H9.00395C9.10461 15.0377 9.20897 15.0578 9.30224 15.0987C9.3952 15.1393 9.48109 15.1961 9.55219 15.2711C9.62361 15.3461 9.67717 15.4367 9.71565 15.5347C9.75413 15.6331 9.77352 15.7432 9.77352 15.8493V17.6043ZM11.9283 10.3301C11.9283 10.2239 11.9474 10.1239 11.9862 10.0256C12.0247 9.92753 12.0785 9.83695 12.1496 9.76164C12.2208 9.68664 12.3066 9.61977 12.3996 9.57886C12.4929 9.53828 12.5972 9.51783 12.6979 9.51783H14.5159C14.6166 9.51783 14.7209 9.53796 14.8142 9.57886C14.9072 9.61944 14.993 9.68632 15.0645 9.76164C15.1356 9.83663 15.1894 9.9272 15.2279 10.0256C15.2664 10.1236 15.2855 10.2236 15.2855 10.3301V12.2374C15.2855 12.3435 15.2664 12.4536 15.2279 12.5519C15.1894 12.65 15.1356 12.7406 15.0645 12.8155C14.9934 12.8909 14.9075 12.9473 14.8142 12.9879C14.7212 13.0285 14.6166 13.049 14.5159 13.049H12.6979C12.5972 13.049 12.4929 13.0288 12.3996 12.9879C12.3066 12.9473 12.2208 12.8905 12.1496 12.8155C12.0782 12.7406 12.0247 12.65 11.9862 12.5519C11.9477 12.4539 11.9283 12.3435 11.9283 12.2374V10.3301ZM12.3999 18.5984C12.3069 18.5578 12.2211 18.501 12.15 18.426C12.0785 18.351 12.025 18.2604 11.9865 18.1621C11.948 18.064 11.9286 17.954 11.9286 17.8475V15.9506C11.9286 15.8445 11.9477 15.7344 11.9865 15.636C12.025 15.538 12.0788 15.4474 12.15 15.3721C12.2211 15.2971 12.3069 15.2403 12.3999 15.1997C12.4932 15.1591 12.5975 15.1387 12.6982 15.1387H14.5162C14.6169 15.1387 14.7212 15.1588 14.8145 15.1997C14.9075 15.2403 14.9934 15.2971 15.0648 15.3721C15.1359 15.4474 15.1897 15.5377 15.2282 15.636C15.2667 15.7341 15.2858 15.8441 15.2858 15.9506V17.8478C15.2858 17.954 15.2667 18.0644 15.2282 18.1624C15.1897 18.2604 15.1359 18.351 15.0648 18.4263C14.9937 18.5013 14.9078 18.5581 14.8145 18.5987C14.7215 18.6393 14.6169 18.6594 14.5162 18.6594H12.6979C12.5972 18.6594 12.4929 18.639 12.3999 18.5984Z"
              fill="white"/>
        <path d="M19.9528 0H4.08148L1.02967 3.36978H16.8902L19.9528 0Z" fill="white"/>
        <path d="M18.0172 23.7846L21 20.4907V1.19371L18.0172 4.47584V23.7846Z" fill="white"/>
        <path d="M6.42435 22.7239C5.84071 22.7239 5.37466 23.2164 5.37466 23.8147V24.9974H11.1064V23.8147C11.1064 23.2164 10.6416 22.7239 10.0536 22.7239H6.42435Z"
              fill="white"/>
    </symbol>
    <symbol viewBox="0 0 17 15"  id="star" fill="currentColor">
            <path d="M6.93506 5.6491L8.36375 1.52685L9.79244 5.6491C9.89708 5.95103 10.1815 6.1535 10.5011 6.1535H15.0416L11.4108 8.6266C11.1308 8.8173 11.0134 9.172 11.1243 9.49207L12.5263 13.5373L8.78596 10.9896C8.53123 10.8161 8.19627 10.8161 7.94154 10.9896L4.20115 13.5373L5.60316 9.49207C5.71409 9.172 5.5967 8.8173 5.31672 8.6266L1.68587 6.1535H6.22641C6.54596 6.1535 6.83041 5.95103 6.93506 5.6491Z" fill="currentColor"/>
            <path d="M6.93506 5.6491L8.36375 1.52685L9.79244 5.6491C9.89708 5.95103 10.1815 6.1535 10.5011 6.1535H15.0416L11.4108 8.6266C11.1308 8.8173 11.0134 9.172 11.1243 9.49207L12.5263 13.5373L8.78596 10.9896C8.53123 10.8161 8.19627 10.8161 7.94154 10.9896L4.20115 13.5373L5.60316 9.49207C5.71409 9.172 5.5967 8.8173 5.31672 8.6266L1.68587 6.1535H6.22641C6.54596 6.1535 6.83041 5.95103 6.93506 5.6491Z" stroke="currentColor"/>
            <path d="M6.93506 5.6491L8.36375 1.52685L9.79244 5.6491C9.89708 5.95103 10.1815 6.1535 10.5011 6.1535H15.0416L11.4108 8.6266C11.1308 8.8173 11.0134 9.172 11.1243 9.49207L12.5263 13.5373L8.78596 10.9896C8.53123 10.8161 8.19627 10.8161 7.94154 10.9896L4.20115 13.5373L5.60316 9.49207C5.71409 9.172 5.5967 8.8173 5.31672 8.6266L1.68587 6.1535H6.22641C6.54596 6.1535 6.83041 5.95103 6.93506 5.6491Z" stroke="currentColor" stroke-opacity="0.2"/>
    </symbol>
    <symbol viewBox="0 0 50 27" fill="none" id="cisco-ico">
            <path d="M34.0112 19.9994C33.4451 19.6924 32.8108 19.5329 32.1668 19.5356C30.7495 19.5356 29.7661 20.5217 29.7661 21.8528C29.7661 23.1439 30.7071 24.1723 32.1668 24.1723C32.8103 24.1738 33.4441 24.0153 34.0112 23.7112V26.043C33.3636 26.2415 32.6907 26.3454 32.0134 26.3516C29.5474 26.3516 27.3829 24.6516 27.3829 21.8517C27.3829 19.258 29.3412 17.3553 32.0134 17.3553C32.6913 17.357 33.365 17.4622 34.0112 17.6671V19.9994ZM11.1276 19.9994C10.5628 19.6918 9.92919 19.5322 9.28599 19.5356C7.8659 19.5356 6.88328 20.5217 6.88328 21.8528C6.88328 23.1439 7.82497 24.1723 9.28599 24.1723C9.92869 24.1744 10.5617 24.0159 11.1276 23.7112V26.043C10.4794 26.2423 9.80571 26.3462 9.12762 26.3516C6.66382 26.3516 4.50205 24.6516 4.50205 21.8517C4.50205 19.258 6.46041 17.3553 9.12834 17.3553C9.80678 17.3565 10.481 17.4617 11.1276 17.6671V19.9994ZM40.9077 19.5682C40.6077 19.5654 40.3101 19.6226 40.0326 19.7367C39.7551 19.8507 39.5033 20.0192 39.292 20.2322C39.0807 20.4452 38.9143 20.6983 38.8024 20.9767C38.6906 21.2551 38.6357 21.5531 38.641 21.853C38.6355 22.1532 38.6902 22.4513 38.8019 22.7299C38.9136 23.0085 39.08 23.262 39.2913 23.4752C39.5026 23.6883 39.7546 23.857 40.0322 23.9711C40.3098 24.0853 40.6075 24.1426 40.9077 24.1397C41.2079 24.1425 41.5056 24.0851 41.7832 23.971C42.0608 23.8568 42.3128 23.6882 42.5242 23.475C42.7356 23.2619 42.9022 23.0085 43.0141 22.7299C43.126 22.4513 43.1809 22.1532 43.1756 21.853C43.1806 21.553 43.1255 21.2551 43.0135 20.9767C42.9015 20.6984 42.7349 20.4453 42.5235 20.2323C42.3121 20.0194 42.0603 19.8509 41.7827 19.7369C41.5052 19.6228 41.2077 19.5655 40.9077 19.5682ZM45.4986 21.853C45.4986 24.3383 43.5798 26.3522 40.9084 26.3522C38.2369 26.3522 36.3195 24.3383 36.3195 21.8523C36.3195 19.3717 38.2361 17.3558 40.9077 17.3558C43.5792 17.3558 45.4986 19.3715 45.4986 21.853ZM24.6476 19.4848C24.615 19.4746 23.692 19.2195 22.9337 19.2195C22.0552 19.2195 21.5774 19.514 21.5774 19.9314C21.5774 20.4606 22.2219 20.6452 22.5823 20.7591L23.1872 20.9515C24.6108 21.404 25.2586 22.3785 25.2586 23.4369C25.2586 25.6195 23.3393 26.3528 21.6615 26.3528C20.8673 26.3452 20.0754 26.2657 19.2956 26.1154V24.1159C19.4886 24.1645 20.4081 24.4395 21.3657 24.4395C22.4566 24.4395 22.958 24.1201 22.958 23.6284C22.958 23.1881 22.5241 22.9339 21.9803 22.7631C21.8483 22.7187 21.6483 22.6562 21.5122 22.6118C20.2914 22.2256 19.2733 21.5076 19.2733 20.0701C19.2733 18.4452 20.49 17.3542 22.5108 17.3542C23.2313 17.364 23.9483 17.4567 24.6476 17.6305V19.4848Z" fill="#666666"/>
            <path d="M16.3336 26.1987H14.1413V17.5102H16.3336V26.1987Z" fill="#666666"/>
            <path d="M1.8571 7.40632C2.0611 7.60954 2.17614 7.88541 2.17699 8.17339L2.17709 10.4539C2.16992 10.7378 2.05209 11.0077 1.84872 11.206C1.64536 11.4043 1.37257 11.5152 1.08855 11.5152C0.804523 11.5152 0.531726 11.4043 0.328362 11.206C0.124998 11.0077 0.00716178 10.7378 0 10.4539V8.17264C0.00114237 7.88471 0.116406 7.60903 0.320516 7.40597C0.524627 7.2029 0.800933 7.08902 1.08885 7.08937C1.37681 7.08912 1.6531 7.2031 1.8571 7.40632Z" fill="#666666"/>
            <path d="M8.07253 4.76421C8.12723 4.89627 8.15539 5.03782 8.15539 5.18078V10.4543C8.15539 10.743 8.0407 11.0199 7.83656 11.224C7.63242 11.4282 7.35555 11.5429 7.06685 11.5429C6.77815 11.5429 6.50127 11.4282 6.29713 11.224C6.09299 11.0199 5.9783 10.743 5.9783 10.4543V5.18078C5.9783 5.03782 6.00646 4.89627 6.06117 4.76421C6.11587 4.63214 6.19605 4.51218 6.29713 4.4111C6.39822 4.31002 6.51822 4.22983 6.65028 4.17515C6.78235 4.12046 6.9239 4.09234 7.06685 4.09234C7.20979 4.09234 7.35134 4.12046 7.4834 4.17515C7.61547 4.22983 7.73547 4.31002 7.83655 4.4111C7.93763 4.51218 8.01782 4.63214 8.07253 4.76421Z" fill="#666666"/>
            <path d="M13.8146 0.317704C14.0186 0.521071 14.1337 0.796997 14.1345 1.08502V12.6218C14.1273 12.9057 14.0094 13.1755 13.8061 13.3738C13.6027 13.572 13.33 13.6829 13.046 13.6829C12.762 13.6829 12.4892 13.572 12.2858 13.3738C12.0825 13.1755 11.9646 12.9057 11.9574 12.6218V1.08502C11.9583 0.796897 12.0734 0.52087 12.2776 0.317503C12.4817 0.114137 12.7581 0.000100428 13.0463 0.000301284C13.3343 0.000200856 13.6106 0.114337 13.8146 0.317704Z" fill="#666666"/>
            <path d="M20.0304 4.76406C20.085 4.89622 20.113 5.03777 20.1129 5.18078L20.1133 5.17923V10.4534C20.1133 10.7421 19.9986 11.019 19.7945 11.2231C19.5904 11.4273 19.3135 11.5419 19.0248 11.5419C18.7361 11.5419 18.4592 11.4273 18.2551 11.2231C18.0509 11.019 17.9362 10.7421 17.9362 10.4534V5.17983C17.9362 5.03687 17.9644 4.89537 18.0191 4.7633C18.0738 4.63124 18.154 4.51123 18.2551 4.41015C18.3562 4.30907 18.4762 4.22893 18.6082 4.17424C18.7403 4.11956 18.8818 4.09139 19.0248 4.09139C19.1678 4.09144 19.3093 4.11966 19.4414 4.17444C19.5735 4.22923 19.6935 4.30947 19.7946 4.41065C19.8956 4.51183 19.9757 4.63189 20.0304 4.76406Z" fill="#666666"/>
            <path d="M25.7684 7.40742C25.9713 7.61069 26.0852 7.88622 26.085 8.17339V10.4539C26.085 10.7417 25.9707 11.0177 25.7672 11.2212C25.5638 11.4246 25.2878 11.539 25 11.539C24.7122 11.539 24.4362 11.4246 24.2328 11.2212C24.0293 11.0177 23.9149 10.7417 23.9149 10.4539V8.17264C23.916 7.88481 24.0312 7.60918 24.2352 7.40612C24.4391 7.20305 24.7153 7.08917 25.0031 7.08937C25.2903 7.08977 25.5656 7.20416 25.7684 7.40742Z" fill="#666666"/>
            <path d="M31.7389 4.43114C31.9416 4.62878 32.059 4.89778 32.0662 5.18078V10.4543C32.0662 10.5968 32.0382 10.7379 31.9836 10.8695C31.9291 11.0012 31.8492 11.1208 31.7484 11.2216C31.6477 11.3224 31.5281 11.4023 31.3964 11.4568C31.2648 11.5113 31.1237 11.5394 30.9812 11.5394C30.6934 11.5393 30.4175 11.425 30.214 11.2215C30.0105 11.0181 29.8962 10.7421 29.8961 10.4543V5.18078C29.9033 4.89778 30.0208 4.62878 30.2235 4.43114C30.4262 4.2335 30.6981 4.12287 30.9812 4.12287C31.2643 4.12287 31.5362 4.2335 31.7389 4.43114Z" fill="#666666"/>
            <path d="M37.7309 0.317805C37.9344 0.521272 38.0487 0.797248 38.0487 1.08502V12.6218C38.0573 12.8176 38.0127 13.0121 37.9197 13.1846C37.8267 13.3571 37.6887 13.5013 37.5204 13.6017C37.3521 13.7022 37.1597 13.7553 36.9636 13.7553C36.7676 13.7553 36.5752 13.7022 36.4069 13.6017C36.2386 13.5012 36.1007 13.3571 36.0077 13.1845C35.9147 13.012 35.8701 12.8176 35.8787 12.6218V1.08502C35.8787 0.797248 35.993 0.521272 36.1965 0.317805C36.3999 0.114337 36.6759 0 36.9637 0C37.2515 0 37.5275 0.114337 37.7309 0.317805Z" fill="#666666"/>
            <path d="M43.9454 4.76265C44.0009 4.89507 44.0296 5.03717 44.0299 5.18078V10.4543C44.0298 10.598 44.0013 10.7403 43.9459 10.8729C43.8905 11.0056 43.8094 11.1259 43.7073 11.227C43.6051 11.3281 43.484 11.4079 43.3508 11.462C43.2176 11.516 43.075 11.5431 42.9313 11.5416C42.7887 11.5415 42.6474 11.5133 42.5157 11.4586C42.384 11.404 42.2643 11.3238 42.1636 11.2228C42.0628 11.1218 41.983 11.002 41.9286 10.8701C41.8742 10.7383 41.8463 10.597 41.8466 10.4543V5.18008C41.8466 4.89235 41.9608 4.61633 42.1642 4.41281C42.3677 4.20929 42.6436 4.09485 42.9313 4.0947C43.0749 4.0934 43.2173 4.12046 43.3504 4.17444C43.4834 4.22842 43.6045 4.30816 43.7066 4.40909C43.8088 4.51002 43.8899 4.63024 43.9454 4.76265Z" fill="#666666"/>
            <path d="M49.6819 7.40537C49.8856 7.60908 50 7.88531 50 8.17339L49.9993 10.454C49.9995 10.5967 49.9716 10.7381 49.9171 10.87C49.8627 11.0019 49.7828 11.1219 49.682 11.2229C49.5812 11.324 49.4615 11.4042 49.3297 11.4589C49.1979 11.5137 49.0567 11.542 48.9139 11.5421C48.7712 11.542 48.6298 11.5138 48.4979 11.4591C48.3661 11.4044 48.2463 11.3241 48.1454 11.2231C48.0446 11.1221 47.9646 11.0021 47.9101 10.8702C47.8556 10.7382 47.8277 10.5968 47.8279 10.454V8.17339C47.8279 7.88531 47.9423 7.60908 48.1459 7.40537C48.3496 7.20165 48.6259 7.08726 48.9139 7.08721C49.202 7.08726 49.4782 7.20165 49.6819 7.40537Z" fill="#666666"/>
            <path d="M48.7449 25.1897H48.3574H48.7449Z" fill="#666666"/>
            <path d="M48.3574 25.1897V26.1975V25.1897Z" fill="#666666"/>
            <path d="M48.3574 26.1975H48.1977H48.3574Z" fill="#666666"/>
            <path d="M48.1977 26.1975V25.1905V26.1975Z" fill="#666666"/>
            <path d="M48.1977 25.1905H47.8088H48.1977Z" fill="#666666"/>
            <path d="M47.8088 25.1905V25.0536V25.1905Z" fill="#666666"/>
            <path d="M47.8088 25.0536L48.7449 25.0535L47.8088 25.0536Z" fill="#666666"/>
            <path d="M49.0754 25.0535L49.4177 25.9918L49.0754 25.0535Z" fill="#666666"/>
            <path d="M49.4177 25.9918H49.4233H49.4177Z" fill="#666666"/>
            <path d="M49.4233 25.9918L49.7545 25.0543L49.4233 25.9918Z" fill="#666666"/>
            <path d="M49.7545 25.0543H49.999H49.7545Z" fill="#666666"/>
            <path d="M49.999 25.0543V26.1973V25.0543Z" fill="#666666"/>
            <path d="M49.999 26.1973H49.8358H49.999Z" fill="#666666"/>
            <path d="M49.8358 26.1973V25.2599V26.1973Z" fill="#666666"/>
            <path d="M49.8358 25.2599H49.8302H49.8358Z" fill="#666666"/>
            <path d="M49.8302 25.2599L49.483 26.1973L49.8302 25.2599Z" fill="#666666"/>
            <path d="M49.483 26.1973H49.3326H49.483Z" fill="#666666"/>
            <path d="M49.3326 26.1973L48.9932 25.2599L49.3326 26.1973Z" fill="#666666"/>
            <path d="M48.9932 25.2599H48.9856H48.9932Z" fill="#666666"/>
            <path d="M48.9856 25.2599V26.1973V25.2599Z" fill="#666666"/>
            <path d="M48.9856 26.1973H48.8259H48.9856Z" fill="#666666"/>
            <path d="M48.8259 26.1973L48.8261 25.0535L48.8259 26.1973Z" fill="#666666"/>
            <path d="M49.0754 25.0535L49.4177 25.9918H49.4233L49.7545 25.0543H49.999V26.1973H49.8358V25.2599H49.8302L49.483 26.1973H49.3326L48.9932 25.2599H48.9856V26.1973H48.8259L48.8261 25.0535H49.0754Z" fill="#666666"/>
            <path d="M48.7449 25.1897H48.3574V26.1975H48.1977V25.1905H47.8088V25.0536L48.7449 25.0535V25.1897Z" fill="#666666"/>
    </symbol>
    <symbol viewBox="0 0 48 19" id="ebay-ico" fill="none">
            <path fill-rule="evenodd" clip-rule="evenodd" d="M14.4487 5.71924C14.4487 5.71924 15.7657 3.98389 18.8237 4C21.8827 4.01611 24.7187 6.06299 24.6527 9.58594C24.6462 9.91113 24.6183 10.2217 24.5706 10.519C25.3888 8.31641 29.4299 8.01562 30.6368 8.00781C31.3467 8.00781 33.4768 8 33.4768 8C33.4878 6.56982 33.0348 5.61279 30.5548 5.56982C28.4407 5.53076 27.8977 6.58594 27.7698 7H25.1798C25.8398 3.60205 30.7228 4.01611 30.7228 4.01611C35.8093 4.21533 35.9344 6.83105 35.9932 8.06299L35.9998 8.19482V15L33.7458 15.0117L33.6448 13.1797C32.6838 14.3398 31.3908 14.9878 29.1208 15C26.911 15.0112 24.1041 14.0942 24.426 11.1797C23.7256 13.6719 21.4888 15 18.7727 15C15.5277 15 14.4177 13.2661 14.4177 13.2661L14.3157 15H11.9997V10H2.44074C2.44074 10 2.57774 13.3989 6.06974 13.4639C8.78474 13.5122 9.27674 11.6841 9.27674 11.6841L11.7847 11.6758C11.7847 11.6758 11.5187 15 6.05875 15C-0.293266 15 0.0037306 9.70312 0.0037306 9.70312C-0.0272447 8.52686 -0.00426483 4 5.99973 4C11.0243 4 11.8808 7.43018 11.9997 9.10352V0H14.4487V5.71924ZM14.4647 9.54297C14.4647 9.54297 14.4017 13.4771 18.2657 13.4302C22.1247 13.3828 22.1327 9.625 22.1327 9.625C22.1327 9.625 22.1907 5.47705 18.2577 5.57422C14.3247 5.67188 14.4647 9.54297 14.4647 9.54297ZM6.14774 5.55078C2.69474 5.55078 2.52274 8.51611 2.52274 8.51611H9.58573C9.58573 8.51611 9.58573 5.54688 6.14774 5.55078ZM26.9447 11.645C27.0898 13.5161 29.5468 13.5117 29.5468 13.5117C33.9488 13.5659 33.4998 9.56299 33.5028 9.56299L30.7228 9.56592C30.7228 9.56592 26.7928 9.64795 26.9447 11.645Z" fill="#666666"/>
            <path d="M34.4378 4H37.2417L41.3478 12.1841L45.4648 4H47.9998L40.5738 19H37.8597L40.0088 14.5352L34.4378 4Z" fill="#666666"/>
    </symbol>
</svg>