<svg width="17" height="15" viewBox="0 0 17 15" fill="none" xmlns="http://www.w3.org/2000/svg">
<path d="M6.93506 5.6491L8.36375 1.52685L9.79244 5.6491C9.89708 5.95103 10.1815 6.1535 10.5011 6.1535H15.0416L11.4108 8.6266C11.1308 8.8173 11.0134 9.172 11.1243 9.49207L12.5263 13.5373L8.78596 10.9896C8.53123 10.8161 8.19627 10.8161 7.94154 10.9896L4.20115 13.5373L5.60316 9.49207C5.71409 9.172 5.5967 8.8173 5.31672 8.6266L1.68587 6.1535H6.22641C6.54596 6.1535 6.83041 5.95103 6.93506 5.6491Z" fill="#FBB040"/>
<path d="M6.93506 5.6491L8.36375 1.52685L9.79244 5.6491C9.89708 5.95103 10.1815 6.1535 10.5011 6.1535H15.0416L11.4108 8.6266C11.1308 8.8173 11.0134 9.172 11.1243 9.49207L12.5263 13.5373L8.78596 10.9896C8.53123 10.8161 8.19627 10.8161 7.94154 10.9896L4.20115 13.5373L5.60316 9.49207C5.71409 9.172 5.5967 8.8173 5.31672 8.6266L1.68587 6.1535H6.22641C6.54596 6.1535 6.83041 5.95103 6.93506 5.6491Z" stroke="black"/>
<path d="M6.93506 5.6491L8.36375 1.52685L9.79244 5.6491C9.89708 5.95103 10.1815 6.1535 10.5011 6.1535H15.0416L11.4108 8.6266C11.1308 8.8173 11.0134 9.172 11.1243 9.49207L12.5263 13.5373L8.78596 10.9896C8.53123 10.8161 8.19627 10.8161 7.94154 10.9896L4.20115 13.5373L5.60316 9.49207C5.71409 9.172 5.5967 8.8173 5.31672 8.6266L1.68587 6.1535H6.22641C6.54596 6.1535 6.83041 5.95103 6.93506 5.6491Z" stroke="black" stroke-opacity="0.2"/>
</svg>
